<svg width="273" height="82" viewBox="0 0 273 82" fill="none" xmlns="http://www.w3.org/2000/svg">
<g clip-path="url(#clip0_3_6)">
<path d="M270.172 14.2422L72.9384 16.9595C54.4983 17.224 36.0583 17.4645 17.6182 17.729L15.1772 12.5589C76.6119 16.3824 138.071 20.2059 199.505 24.0053C216.761 25.0874 234.041 26.1455 251.297 27.2276C252.916 27.3238 255.744 28.3097 256.372 29.993C257.001 31.6762 255.164 32.3496 253.714 32.3496C190.998 32.7824 128.21 33.2393 65.5914 37.1108C48.0455 38.193 30.5238 39.5396 13.0263 41.2469L10.6095 36.1009C48.0213 40.5255 85.4332 44.9261 122.845 49.3507C124.488 49.5431 127.292 50.3848 127.944 52.1402C128.597 53.8956 126.736 54.4487 125.286 54.4968C95.4628 55.5067 65.688 57.4545 35.9857 60.3402L33.5448 55.1701C61.362 57.8153 89.1309 60.8452 116.876 64.3079C118.543 64.5243 121.371 65.3419 122.023 67.1214C122.676 68.9009 120.791 69.478 119.341 69.5021C100.466 69.9109 81.7838 72.6762 63.6096 77.7501L61.3862 72.9167C72.9867 75.2974 84.5873 77.654 96.1879 80.0586C97.8071 80.3953 102.302 82.9924 99.2814 84.6516C93.1186 88.0422 86.4241 90.1343 79.4396 90.9519C77.2644 91.1924 74.5818 90.8076 72.9384 89.2205C71.6817 88.0182 71.73 86.2147 73.8084 85.9742C80.2129 85.2287 86.2065 83.2809 91.8377 80.1308L94.9311 84.7238C83.3306 82.3431 71.7542 79.9625 60.1536 77.5578C57.8577 77.0768 53.8941 73.8545 57.9302 72.7243C76.7569 67.5062 96.1879 64.6927 115.74 64.2598L118.181 69.454C90.4359 66.0152 62.6671 62.9372 34.8499 60.2921C33.2064 60.1478 30.3788 59.234 29.7504 57.5026C29.1221 55.7713 30.983 55.2663 32.4089 55.122C62.1112 52.2364 91.886 50.2886 121.709 49.2786L124.15 54.4246C86.7382 50 49.3264 45.5754 11.8904 41.1748C10.247 40.9824 7.44352 40.1408 6.81515 38.3853C6.18679 36.6299 8.04771 36.149 9.47361 36.0287C71.9233 29.993 134.687 28.3097 197.403 27.6123C214.997 27.4199 232.567 27.2997 250.161 27.1795L252.578 32.3015C191.143 28.478 129.709 24.6786 68.2498 20.8792L16.4581 17.6809C14.8389 17.5847 11.9629 16.5748 11.3587 14.8915C10.7545 13.2082 12.5671 12.5349 14.0172 12.5108C79.7537 11.573 145.49 10.6833 211.227 9.7695L266.547 9C268.529 8.97595 271.622 9.67331 272.686 11.5249C273.749 13.3765 271.767 14.2182 270.172 14.2422V14.2422Z" fill="white"/>
</g>
<defs>
<clipPath id="clip0_3_6">
<rect width="273" height="82" fill="white" transform="matrix(-1 0 0 1 273 0)"/>
</clipPath>
</defs>
</svg>
